<?xml version="1.0"?>
<svg width="250" height="80" xmlns="http://www.w3.org/2000/svg" xmlns:svg="http://www.w3.org/2000/svg">
 <!-- Created with SVG-edit - https://github.com/SVG-Edit/svgedit-->
 <defs>
  <marker id="se_marker_start_svg_21" markerHeight="5" markerUnits="strokeWidth" markerWidth="5" orient="auto" refX="50" refY="50" se_type="mcircle" viewBox="0 0 100 100">
   <circle cx="50" cy="50" fill="#000000" r="30" stroke="#000000" stroke-width="10"/>
  </marker>
  <marker id="se_marker_end_svg_21" markerHeight="5" markerUnits="strokeWidth" markerWidth="5" orient="auto" refX="50" refY="50" se_type="mcircle" viewBox="0 0 100 100">
   <circle cx="50" cy="50" fill="#000000" r="30" stroke="#000000" stroke-width="10"/>
  </marker>
 </defs>
 <g class="layer">
  <title>Layer 1</title>
  <line fill="none" id="svg_21" marker-end="url(#se_marker_end_svg_21)" marker-start="url(#se_marker_start_svg_21)" stroke="#000000" stroke-dasharray="null" stroke-linecap="null" stroke-linejoin="null" stroke-width="3" x1="4.999998" x2="245" y1="41" y2="40"/>
  <path d="m84.500006,82.499996l15.187499,-85.000001l50.625,0l15.187494,85.000001l-80.999993,0z" fill="#ff0000" id="svg_22" stroke="#000000" stroke-dasharray="null" stroke-linecap="null" stroke-linejoin="null" stroke-opacity="0" stroke-width="3" transform="rotate(90 125 40)"/>
  <g id="svg_24"/>
  <g id="svg_9"/>
  <g id="svg_10"/>
  <g id="svg_12"/>
  <g id="svg_20">
   <g id="svg_23">
    <path d="m103.948174,18.681009l0,0c10.842425,-11.247156 28.833312,-10.819939 40.183773,0.954218l0,0c5.450681,5.654146 8.609757,13.222284 8.782269,21.039509c0.172511,7.817223 -2.65568,15.243184 -7.862395,20.644258l0,0c-10.842422,11.247154 -28.833308,10.819938 -40.183765,-0.954215l0,0c-11.350461,-11.774157 -11.762303,-30.436618 -0.919882,-41.68377zm40.183773,0.954218l-39.26389,40.729553m-0.919882,-41.68377l41.103647,42.637985" fill="#ff0000" id="svg_16" stroke="#000000" stroke-dasharray="null" stroke-linecap="null" stroke-linejoin="null" stroke-width="3"/>
    <path d="m103.430929,19.878661l0,0c0.661034,0.663756 -1.311463,-1.360442 1.300929,1.349466l17.562217,18.217788l-18.863142,19.567275c-10.417822,-10.806704 -10.417821,-28.327831 -0.000004,-39.13453zm18.863146,20.916721l-18.863142,18.217809m-0.000004,-39.13453" fill="#000000" id="svg_17" stroke="#000000" stroke-dasharray="null" stroke-linecap="null" stroke-linejoin="null" stroke-width="3"/>
    <path d="m142.618096,60.530507l0,0c-0.661034,-0.663756 1.311463,1.360442 -1.300929,-1.349466l-17.562217,-18.217788l18.863142,-19.567275c10.417822,10.806704 10.417821,28.327831 0.000004,39.13453zm-18.863146,-20.916721l18.863142,-18.217809m0.000004,39.13453" fill="#000000" id="svg_19" stroke="#000000" stroke-dasharray="null" stroke-linecap="null" stroke-linejoin="null" stroke-width="3"/>
   </g>
  </g>
 </g>
</svg>