<?xml version="1.0"?>
<svg width="150" height="120" xmlns="http://www.w3.org/2000/svg" xmlns:svg="http://www.w3.org/2000/svg">
 <!-- Created with SVG-edit - https://github.com/SVG-Edit/svgedit-->
 <defs>
  <linearGradient id="svg_34" x1="0" x2="1" y1="0" y2="0">
   <stop offset="0" stop-color="#00ff00" stop-opacity="0.996094"/>
   <stop offset="0.604187" stop-color="#007f00" stop-opacity="0.996094"/>
   <stop offset="1" stop-color="#007f00" stop-opacity="0.996094"/>
  </linearGradient>
  <linearGradient id="svg_36" x1="0" x2="0" y1="0" y2="1">
   <stop offset="0" stop-color="#ffff00" stop-opacity="0.996094"/>
   <stop offset="1" stop-color="#d69617" stop-opacity="0.992188"/>
  </linearGradient>
  <linearGradient id="svg_40" x1="0" x2="1" y1="0" y2="0">
   <stop offset="0" stop-color="#999999" stop-opacity="0.996094"/>
   <stop offset="0.385437" stop-color="#ffffff"/>
   <stop offset="1" stop-color="#ffffff"/>
  </linearGradient>
  <linearGradient id="svg_44" x1="0" x2="0" y1="0" y2="1">
   <stop offset="0" stop-color="#ffff00" stop-opacity="0.996094"/>
   <stop offset="1" stop-color="#c48c00" stop-opacity="0.996094"/>
  </linearGradient>
  <linearGradient id="svg_45" y1="1" y2="1">
   <stop offset="0" stop-color="#00ff00"/>
   <stop offset="0.475281" stop-color="#007f00" stop-opacity="0.996094"/>
  </linearGradient>
  <linearGradient id="svg_47" x1="0" x2="1" y1="0" y2="0">
   <stop offset="0" stop-color="#00ff00"/>
   <stop offset="0" stop-color="#00ff00" stop-opacity="0.996094"/>
   <stop offset="1" stop-color="#0b630b" stop-opacity="0.992188"/>
  </linearGradient>
 </defs>
 <g class="layer">
  <title>Layer 1</title>
  <rect fill="url(#svg_34)" height="118.499985" id="svg_28" stroke="url(#svg_47)" stroke-dasharray="null" stroke-linecap="null" stroke-linejoin="null" width="148.500009" x="0.5" y="0.765634"/>
  <g id="svg_24"/>
  <g id="svg_9"/>
  <g id="svg_10"/>
  <rect fill="#ffffff" height="103.500005" id="svg_32" stroke="url(#svg_40)" stroke-dasharray="null" stroke-linecap="null" stroke-linejoin="null" transform="rotate(180 74 60)" width="136.999997" x="5.500009" y="8.249992"/>
  <line fill="none" id="svg_26" stroke="url(#svg_45)" stroke-dasharray="null" stroke-linecap="null" stroke-linejoin="null" stroke-width="3" x1="11" x2="139.000001" y1="60.500002" y2="59.500002"/>
  <path d="m41.25,39.765625c1.799999,0 2.700001,0 3.599998,0c0.900002,0 1.800003,0 2.700001,0c0.900002,0 1.799999,0 2.700001,0c0.799999,0 1.700001,0 2.599998,0l0.900002,0l0.900002,0" fill="none" id="svg_33" stroke="#000000" stroke-dasharray="null" stroke-linecap="null" stroke-linejoin="null" stroke-opacity="0" stroke-width="3"/>
  <path d="m36.422879,9.999995l77.154318,0l-38.577159,49.999997l38.577159,49.999997l-77.154398,0l38.577239,-49.999997l-38.577159,-49.999997z" fill="url(#svg_36)" id="svg_35" stroke="url(#svg_44)" stroke-dasharray="null" stroke-linecap="null" stroke-linejoin="null" stroke-width="3" transform="rotate(-90 75 60)"/>
 </g>
</svg>