<?xml version="1.0"?>
<svg width="150" height="120" xmlns="http://www.w3.org/2000/svg" xmlns:svg="http://www.w3.org/2000/svg">
 <!-- Created with SVG-edit - https://github.com/SVG-Edit/svgedit-->
 <defs>
  <linearGradient id="svg_34" x1="0" x2="1" y1="0" y2="0">
   <stop offset="0" stop-color="#00ff00" stop-opacity="0.996094"/>
   <stop offset="0.604187" stop-color="#007f00" stop-opacity="0.996094"/>
   <stop offset="1" stop-color="#007f00" stop-opacity="0.996094"/>
  </linearGradient>
  <linearGradient id="svg_40" x1="0" x2="1" y1="0" y2="0">
   <stop offset="0" stop-color="#999999" stop-opacity="0.996094"/>
   <stop offset="0.385437" stop-color="#ffffff"/>
   <stop offset="1" stop-color="#ffffff"/>
  </linearGradient>
  <linearGradient id="svg_45" y1="1" y2="1">
   <stop offset="0" stop-color="#00ff00"/>
   <stop offset="0.475281" stop-color="#007f00" stop-opacity="0.996094"/>
  </linearGradient>
  <linearGradient id="svg_47" x1="0" x2="1" y1="0" y2="0">
   <stop offset="0" stop-color="#00ff00"/>
   <stop offset="0" stop-color="#00ff00" stop-opacity="0.996094"/>
   <stop offset="1" stop-color="#0b630b" stop-opacity="0.992188"/>
  </linearGradient>
  <linearGradient id="svg_2">
   <stop offset="0" stop-color="#00ff00" stop-opacity="0.996094"/>
   <stop offset="0.498718" stop-color="#007f00" stop-opacity="0.996094"/>
  </linearGradient>
 </defs>
 <g class="layer">
  <title>Layer 1</title>
  <rect fill="url(#svg_34)" height="118.499985" id="svg_28" stroke="url(#svg_47)" stroke-dasharray="null" stroke-linecap="null" stroke-linejoin="null" width="148.500009" x="0.5" y="0.765634"/>
  <g id="svg_24"/>
  <g id="svg_9"/>
  <g id="svg_10"/>
  <rect fill="#ffffff" height="103.500005" id="svg_32" stroke="url(#svg_40)" stroke-dasharray="null" stroke-linecap="null" stroke-linejoin="null" transform="rotate(180 74 60)" width="136.999997" x="5.500009" y="8.249992"/>
  <path d="m41.25,39.76563c1.8,0 2.7,0 3.6,0c0.9,0 1.8,0 2.7,0c0.9,0 1.8,0 2.7,0c0.8,0 1.7,0 2.6,0l0.9,0l0.9,0" fill="none" id="svg_33" stroke="#000000" stroke-dasharray="null" stroke-linecap="null" stroke-linejoin="null" stroke-opacity="0" stroke-width="3"/>
  <g id="svg_8"/>
  <g id="svg_11"/>
  <g id="svg_15"/>
  <g id="svg_19">
   <path d="m92.801296,27.174018c0,4.909196 -8.730443,8.888886 -19.49999,8.888886m19.49999,-8.888886l0,0c0,4.909196 -8.730443,8.888886 -19.49999,8.888886c-10.769543,0 -19.499983,-3.979682 -19.499983,-8.888886m0,0l0,0c0,-4.90919 8.73044,-8.888883 19.499983,-8.888883c10.769547,0 19.49999,3.979693 19.49999,8.888883l0,35.555557c0,4.90919 -8.730443,8.88887 -19.49999,8.88887c-10.769543,0 -19.499983,-3.979679 -19.499983,-8.88887l0,-35.555557z" fill="url(#svg_2)" id="svg_1" stroke="url(#svg_45)" stroke-dasharray="null" stroke-linecap="null" stroke-linejoin="null" stroke-width="3"/>
   <ellipse cx="73.249999" cy="26.765625" fill="#cccccc" id="svg_3" rx="20.5" ry="10" stroke="#000000" stroke-dasharray="null" stroke-linecap="null" stroke-linejoin="null" stroke-opacity="0" stroke-width="3"/>
   <ellipse cx="81.25" cy="28.765625" fill="#007f00" id="svg_5" rx="4.5" ry="4" stroke="#000000" stroke-dasharray="null" stroke-linecap="null" stroke-linejoin="null" stroke-opacity="0" stroke-width="3"/>
   <path d="m112.8013,54.17402c0,4.90919 -8.73045,8.88888 -19.49999,8.88888m19.49999,-8.88888l0,0c0,4.90919 -8.73045,8.88888 -19.49999,8.88888c-10.76955,0 -19.49999,-3.97968 -19.49999,-8.88888m0,0l0,0c0,-4.90919 8.73044,-8.88888 19.49999,-8.88888c10.76954,0 19.49999,3.97969 19.49999,8.88888l0,35.55556c0,4.90919 -8.73045,8.88886 -19.49999,8.88886c-10.76955,0 -19.49999,-3.97967 -19.49999,-8.88886l0,-35.55556z" fill="url(#svg_2)" id="svg_12" stroke="url(#svg_45)" stroke-dasharray="null" stroke-linecap="null" stroke-linejoin="null" stroke-width="3"/>
   <ellipse cx="93.249999" cy="53.765625" fill="#cccccc" id="svg_13" rx="20.5" ry="10" stroke="#000000" stroke-dasharray="null" stroke-linecap="null" stroke-linejoin="null" stroke-opacity="0" stroke-width="3"/>
   <ellipse cx="101.25" cy="55.765625" fill="#007f00" id="svg_14" rx="4.5" ry="4" stroke="#000000" stroke-dasharray="null" stroke-linecap="null" stroke-linejoin="null" stroke-opacity="0" stroke-width="3"/>
   <path d="m69.8013,53.17402c0,4.90919 -8.73045,8.88888 -19.49999,8.88888m19.49999,-8.88888l0,0c0,4.90919 -8.73045,8.88888 -19.49999,8.88888c-10.76955,0 -19.49999,-3.97968 -19.49999,-8.88888m0,0l0,0c0,-4.90919 8.73044,-8.88888 19.49999,-8.88888c10.76954,0 19.49999,3.97969 19.49999,8.88888l0,35.55556c0,4.90919 -8.73045,8.88886 -19.49999,8.88886c-10.76955,0 -19.49999,-3.97967 -19.49999,-8.88886l0,-35.55556z" fill="url(#svg_2)" id="svg_16" stroke="url(#svg_45)" stroke-dasharray="null" stroke-linecap="null" stroke-linejoin="null" stroke-width="3"/>
   <ellipse cx="50.249999" cy="52.765625" fill="#cccccc" id="svg_17" rx="20.5" ry="10" stroke="#000000" stroke-dasharray="null" stroke-linecap="null" stroke-linejoin="null" stroke-opacity="0" stroke-width="3"/>
   <ellipse cx="58.25" cy="54.765625" fill="#007f00" id="svg_18" rx="4.5" ry="4" stroke="#000000" stroke-dasharray="null" stroke-linecap="null" stroke-linejoin="null" stroke-opacity="0" stroke-width="3"/>
  </g>
 </g>
</svg>