<?xml version="1.0"?>
<svg width="250" height="80" xmlns="http://www.w3.org/2000/svg" xmlns:svg="http://www.w3.org/2000/svg">
 <!-- Created with SVG-edit - https://github.com/SVG-Edit/svgedit-->
 <defs>
  <marker id="se_marker_start_svg_3" markerHeight="5" markerUnits="strokeWidth" markerWidth="5" orient="auto" refX="50" refY="50" se_type="mcircle" viewBox="0 0 100 100">
   <circle cx="50" cy="50" fill="#ffd400" r="30" stroke="#ffd400" stroke-width="10"/>
  </marker>
  <marker id="se_marker_end_svg_3" markerHeight="5" markerUnits="strokeWidth" markerWidth="5" orient="auto" refX="50" refY="50" se_type="mcircle" viewBox="0 0 100 100">
   <circle cx="50" cy="50" fill="#ffd400" r="30" stroke="#ffd400" stroke-width="10"/>
  </marker>
 </defs>
 <g class="layer">
  <title>Layer 1</title>
  <line fill="none" id="svg_3" marker-end="url(#se_marker_end_svg_3)" marker-start="url(#se_marker_start_svg_3)" stroke="#ffd400" stroke-dasharray="null" stroke-linecap="null" stroke-linejoin="null" stroke-width="3" x1="5" x2="244.999996" y1="40" y2="40"/>
  <g id="svg_10" transform="rotate(90 125 40)">
   <rect fill="#666666" height="39.999999" id="svg_8" stroke="#000000" stroke-dasharray="null" stroke-linecap="null" stroke-linejoin="null" stroke-opacity="0" stroke-width="3" width="63.272143" x="93.789146" y="19.999996"/>
   <ellipse cx="92.428455" cy="39.999996" fill="#28440c" id="svg_6" rx="6.803456" ry="19.599999" stroke="#000000" stroke-dasharray="null" stroke-linecap="null" stroke-linejoin="null" stroke-opacity="0" stroke-width="3"/>
   <ellipse cx="157.571548" cy="39.999996" fill="#666666" id="svg_9" rx="6.803456" ry="19.599999" stroke="#000000" stroke-dasharray="null" stroke-linecap="null" stroke-linejoin="null" stroke-opacity="0" stroke-width="3"/>
  </g>
  <path d="m124.994588,55.445854zm-9.494585,0.688656l0.428319,0l0,1.560463l-0.428319,0l0,-1.560463zm0.474391,0.780812l18.051128,0m0.046157,-0.780427l0.428319,0l0,1.560463l-0.428319,0l0,-1.560463zm-9.02906,0.677502l-0.042502,-32.779252m-0.214195,-0.168053l0,-1.560454l0.428328,0l0,1.560454l-0.428328,0z" fill="#FF0000" id="svg_4" stroke="#ff0000" stroke-width="5"/>
 </g>
</svg>